<mxfile host="app.diagrams.net" modified="2023-05-12T19:38:43.080Z" agent="Mozilla/5.0 (Windows NT 10.0; Win64; x64) AppleWebKit/537.36 (KHTML, like Gecko) Chrome/113.0.0.0 Safari/537.36" etag="Ho9WEaEcMgjNGNgmuAum" version="21.2.9" type="github">
  <diagram name="Page-1" id="NikYehQQ41BtsDd08t2Y">
    <mxGraphModel dx="978" dy="1602" grid="1" gridSize="10" guides="1" tooltips="1" connect="1" arrows="1" fold="1" page="1" pageScale="1" pageWidth="850" pageHeight="1100" math="0" shadow="0">
      <root>
        <mxCell id="0" />
        <mxCell id="1" parent="0" />
        <mxCell id="YeSu2fUrQTfI2PZJ_OVl-2" value="&lt;font style=&quot;font-size: 18px;&quot;&gt;Patient Service&lt;/font&gt;" style="rounded=0;whiteSpace=wrap;html=1;" parent="1" vertex="1">
          <mxGeometry x="40" y="-1010" width="150" height="40" as="geometry" />
        </mxCell>
        <mxCell id="TC9lJ9d6TZ5hDYxFevUr-2" value="&lt;font style=&quot;font-size: 18px;&quot;&gt;Patient Profiles Service&lt;/font&gt;" style="rounded=0;whiteSpace=wrap;html=1;" parent="1" vertex="1">
          <mxGeometry x="240" y="-1040" width="240" height="40" as="geometry" />
        </mxCell>
        <mxCell id="TC9lJ9d6TZ5hDYxFevUr-3" value="&lt;font style=&quot;font-size: 18px;&quot;&gt;Appointment Booking Service&lt;/font&gt;" style="rounded=0;whiteSpace=wrap;html=1;" parent="1" vertex="1">
          <mxGeometry x="240" y="-970" width="240" height="40" as="geometry" />
        </mxCell>
        <mxCell id="TC9lJ9d6TZ5hDYxFevUr-5" value="&lt;font style=&quot;font-size: 18px;&quot;&gt;Payment Service&lt;/font&gt;" style="rounded=0;whiteSpace=wrap;html=1;" parent="1" vertex="1">
          <mxGeometry x="560" y="-970" width="150" height="40" as="geometry" />
        </mxCell>
        <mxCell id="TC9lJ9d6TZ5hDYxFevUr-6" value="&lt;font style=&quot;font-size: 18px;&quot;&gt;Notifiy Service&lt;/font&gt;" style="rounded=0;whiteSpace=wrap;html=1;" parent="1" vertex="1">
          <mxGeometry x="560" y="-920" width="150" height="40" as="geometry" />
        </mxCell>
        <mxCell id="TC9lJ9d6TZ5hDYxFevUr-7" value="&lt;font style=&quot;font-size: 18px;&quot;&gt;Doctor Service&lt;/font&gt;" style="rounded=0;whiteSpace=wrap;html=1;" parent="1" vertex="1">
          <mxGeometry x="40" y="-780" width="150" height="40" as="geometry" />
        </mxCell>
        <mxCell id="TC9lJ9d6TZ5hDYxFevUr-8" value="&lt;font style=&quot;font-size: 18px;&quot;&gt;Doctor Profiles Service&lt;/font&gt;" style="rounded=0;whiteSpace=wrap;html=1;" parent="1" vertex="1">
          <mxGeometry x="240" y="-810" width="240" height="40" as="geometry" />
        </mxCell>
        <mxCell id="TC9lJ9d6TZ5hDYxFevUr-9" value="&lt;font style=&quot;font-size: 18px;&quot;&gt;Appointment Record Service&lt;/font&gt;" style="rounded=0;whiteSpace=wrap;html=1;" parent="1" vertex="1">
          <mxGeometry x="240" y="-740" width="240" height="40" as="geometry" />
        </mxCell>
        <mxCell id="TC9lJ9d6TZ5hDYxFevUr-11" value="&lt;font style=&quot;font-size: 18px;&quot;&gt;Notifiy Service&lt;/font&gt;" style="rounded=0;whiteSpace=wrap;html=1;" parent="1" vertex="1">
          <mxGeometry x="560" y="-740" width="150" height="40" as="geometry" />
        </mxCell>
        <mxCell id="TC9lJ9d6TZ5hDYxFevUr-12" value="&lt;font style=&quot;font-size: 18px;&quot;&gt;Payment Service&lt;/font&gt;" style="rounded=0;whiteSpace=wrap;html=1;" parent="1" vertex="1">
          <mxGeometry x="560" y="-690" width="150" height="40" as="geometry" />
        </mxCell>
        <mxCell id="TC9lJ9d6TZ5hDYxFevUr-13" value="" style="endArrow=classic;html=1;rounded=0;entryX=0;entryY=0.5;entryDx=0;entryDy=0;" parent="1" target="TC9lJ9d6TZ5hDYxFevUr-2" edge="1">
          <mxGeometry width="50" height="50" relative="1" as="geometry">
            <mxPoint x="190" y="-990" as="sourcePoint" />
            <mxPoint x="240" y="-1040" as="targetPoint" />
          </mxGeometry>
        </mxCell>
        <mxCell id="TC9lJ9d6TZ5hDYxFevUr-14" value="" style="endArrow=classic;html=1;rounded=0;entryX=0;entryY=0.25;entryDx=0;entryDy=0;" parent="1" target="TC9lJ9d6TZ5hDYxFevUr-3" edge="1">
          <mxGeometry width="50" height="50" relative="1" as="geometry">
            <mxPoint x="190" y="-975" as="sourcePoint" />
            <mxPoint x="240" y="-1005" as="targetPoint" />
          </mxGeometry>
        </mxCell>
        <mxCell id="TC9lJ9d6TZ5hDYxFevUr-15" value="" style="endArrow=classic;html=1;rounded=0;entryX=0;entryY=0.75;entryDx=0;entryDy=0;" parent="1" target="TC9lJ9d6TZ5hDYxFevUr-5" edge="1">
          <mxGeometry width="50" height="50" relative="1" as="geometry">
            <mxPoint x="480" y="-957.5" as="sourcePoint" />
            <mxPoint x="530" y="-942.5" as="targetPoint" />
          </mxGeometry>
        </mxCell>
        <mxCell id="TC9lJ9d6TZ5hDYxFevUr-16" value="" style="endArrow=classic;html=1;rounded=0;entryX=0;entryY=0.5;entryDx=0;entryDy=0;" parent="1" target="TC9lJ9d6TZ5hDYxFevUr-6" edge="1">
          <mxGeometry width="50" height="50" relative="1" as="geometry">
            <mxPoint x="480" y="-947.5" as="sourcePoint" />
            <mxPoint x="560" y="-930" as="targetPoint" />
          </mxGeometry>
        </mxCell>
        <mxCell id="TC9lJ9d6TZ5hDYxFevUr-17" value="" style="endArrow=classic;html=1;rounded=0;" parent="1" target="TC9lJ9d6TZ5hDYxFevUr-8" edge="1">
          <mxGeometry width="50" height="50" relative="1" as="geometry">
            <mxPoint x="190" y="-770" as="sourcePoint" />
            <mxPoint x="270" y="-752.5" as="targetPoint" />
          </mxGeometry>
        </mxCell>
        <mxCell id="TC9lJ9d6TZ5hDYxFevUr-18" value="" style="endArrow=classic;html=1;rounded=0;entryX=0;entryY=0.25;entryDx=0;entryDy=0;" parent="1" target="TC9lJ9d6TZ5hDYxFevUr-9" edge="1">
          <mxGeometry width="50" height="50" relative="1" as="geometry">
            <mxPoint x="190" y="-757" as="sourcePoint" />
            <mxPoint x="240" y="-763" as="targetPoint" />
          </mxGeometry>
        </mxCell>
        <mxCell id="TC9lJ9d6TZ5hDYxFevUr-19" value="" style="endArrow=classic;html=1;rounded=0;entryX=0;entryY=0.5;entryDx=0;entryDy=0;" parent="1" target="TC9lJ9d6TZ5hDYxFevUr-11" edge="1">
          <mxGeometry width="50" height="50" relative="1" as="geometry">
            <mxPoint x="480" y="-727" as="sourcePoint" />
            <mxPoint x="530" y="-700" as="targetPoint" />
          </mxGeometry>
        </mxCell>
        <mxCell id="TC9lJ9d6TZ5hDYxFevUr-20" value="" style="endArrow=classic;html=1;rounded=0;entryX=0;entryY=0;entryDx=0;entryDy=0;" parent="1" target="TC9lJ9d6TZ5hDYxFevUr-12" edge="1">
          <mxGeometry width="50" height="50" relative="1" as="geometry">
            <mxPoint x="480" y="-717" as="sourcePoint" />
            <mxPoint x="560" y="-710" as="targetPoint" />
          </mxGeometry>
        </mxCell>
        <mxCell id="TC9lJ9d6TZ5hDYxFevUr-21" value="&lt;font style=&quot;font-size: 18px;&quot;&gt;Notification Service&lt;/font&gt;" style="rounded=0;whiteSpace=wrap;html=1;" parent="1" vertex="1">
          <mxGeometry x="40" y="-560" width="210" height="40" as="geometry" />
        </mxCell>
        <mxCell id="TC9lJ9d6TZ5hDYxFevUr-22" value="&lt;font style=&quot;font-size: 18px;&quot;&gt;Notification Templete Service&lt;/font&gt;" style="rounded=0;whiteSpace=wrap;html=1;" parent="1" vertex="1">
          <mxGeometry x="320" y="-570" width="280" height="40" as="geometry" />
        </mxCell>
        <mxCell id="TC9lJ9d6TZ5hDYxFevUr-23" value="&lt;font style=&quot;font-size: 18px;&quot;&gt;Notification Type Service&lt;/font&gt;" style="rounded=0;whiteSpace=wrap;html=1;" parent="1" vertex="1">
          <mxGeometry x="320" y="-510" width="280" height="40" as="geometry" />
        </mxCell>
        <mxCell id="TC9lJ9d6TZ5hDYxFevUr-25" value="" style="endArrow=classic;html=1;rounded=0;entryX=0;entryY=0.25;entryDx=0;entryDy=0;" parent="1" target="TC9lJ9d6TZ5hDYxFevUr-22" edge="1">
          <mxGeometry width="50" height="50" relative="1" as="geometry">
            <mxPoint x="250" y="-540" as="sourcePoint" />
            <mxPoint x="290" y="-630" as="targetPoint" />
          </mxGeometry>
        </mxCell>
        <mxCell id="TC9lJ9d6TZ5hDYxFevUr-26" value="" style="endArrow=classic;html=1;rounded=0;entryX=0;entryY=0;entryDx=0;entryDy=0;exitX=1;exitY=0.75;exitDx=0;exitDy=0;" parent="1" source="TC9lJ9d6TZ5hDYxFevUr-21" target="TC9lJ9d6TZ5hDYxFevUr-23" edge="1">
          <mxGeometry width="50" height="50" relative="1" as="geometry">
            <mxPoint x="260" y="-530" as="sourcePoint" />
            <mxPoint x="330" y="-550" as="targetPoint" />
          </mxGeometry>
        </mxCell>
        <mxCell id="TC9lJ9d6TZ5hDYxFevUr-27" value="&lt;font style=&quot;font-size: 18px;&quot;&gt;Payment Service&lt;/font&gt;" style="rounded=0;whiteSpace=wrap;html=1;" parent="1" vertex="1">
          <mxGeometry x="40" y="-360" width="210" height="40" as="geometry" />
        </mxCell>
        <mxCell id="TC9lJ9d6TZ5hDYxFevUr-28" value="&lt;font style=&quot;font-size: 18px;&quot;&gt;Payment Method Service&lt;/font&gt;" style="rounded=0;whiteSpace=wrap;html=1;" parent="1" vertex="1">
          <mxGeometry x="320" y="-370" width="280" height="40" as="geometry" />
        </mxCell>
        <mxCell id="TC9lJ9d6TZ5hDYxFevUr-29" value="&lt;font style=&quot;font-size: 18px;&quot;&gt;Payment Process Service&lt;/font&gt;" style="rounded=0;whiteSpace=wrap;html=1;" parent="1" vertex="1">
          <mxGeometry x="320" y="-310" width="280" height="40" as="geometry" />
        </mxCell>
        <mxCell id="TC9lJ9d6TZ5hDYxFevUr-30" value="" style="endArrow=classic;html=1;rounded=0;entryX=0;entryY=0.25;entryDx=0;entryDy=0;" parent="1" target="TC9lJ9d6TZ5hDYxFevUr-28" edge="1">
          <mxGeometry width="50" height="50" relative="1" as="geometry">
            <mxPoint x="250" y="-340" as="sourcePoint" />
            <mxPoint x="290" y="-430" as="targetPoint" />
          </mxGeometry>
        </mxCell>
        <mxCell id="TC9lJ9d6TZ5hDYxFevUr-31" value="" style="endArrow=classic;html=1;rounded=0;entryX=0;entryY=0;entryDx=0;entryDy=0;exitX=1;exitY=0.75;exitDx=0;exitDy=0;" parent="1" source="TC9lJ9d6TZ5hDYxFevUr-27" target="TC9lJ9d6TZ5hDYxFevUr-29" edge="1">
          <mxGeometry width="50" height="50" relative="1" as="geometry">
            <mxPoint x="260" y="-330" as="sourcePoint" />
            <mxPoint x="330" y="-350" as="targetPoint" />
          </mxGeometry>
        </mxCell>
        <mxCell id="TC9lJ9d6TZ5hDYxFevUr-32" value="&lt;font style=&quot;font-size: 18px;&quot;&gt;Admin Service&lt;/font&gt;" style="rounded=0;whiteSpace=wrap;html=1;" parent="1" vertex="1">
          <mxGeometry x="40" y="-160" width="210" height="40" as="geometry" />
        </mxCell>
        <mxCell id="TC9lJ9d6TZ5hDYxFevUr-33" value="&lt;font style=&quot;font-size: 18px;&quot;&gt;Admin Profiles Service&lt;/font&gt;" style="rounded=0;whiteSpace=wrap;html=1;" parent="1" vertex="1">
          <mxGeometry x="320" y="-170" width="280" height="40" as="geometry" />
        </mxCell>
        <mxCell id="TC9lJ9d6TZ5hDYxFevUr-34" value="&lt;font style=&quot;font-size: 18px;&quot;&gt;Dashboard Templete Service&lt;/font&gt;" style="rounded=0;whiteSpace=wrap;html=1;" parent="1" vertex="1">
          <mxGeometry x="320" y="-110" width="280" height="40" as="geometry" />
        </mxCell>
        <mxCell id="TC9lJ9d6TZ5hDYxFevUr-35" value="" style="endArrow=classic;html=1;rounded=0;entryX=0;entryY=0.25;entryDx=0;entryDy=0;" parent="1" target="TC9lJ9d6TZ5hDYxFevUr-33" edge="1">
          <mxGeometry width="50" height="50" relative="1" as="geometry">
            <mxPoint x="250" y="-140" as="sourcePoint" />
            <mxPoint x="290" y="-230" as="targetPoint" />
          </mxGeometry>
        </mxCell>
        <mxCell id="TC9lJ9d6TZ5hDYxFevUr-36" value="" style="endArrow=classic;html=1;rounded=0;entryX=0;entryY=0;entryDx=0;entryDy=0;exitX=1;exitY=0.75;exitDx=0;exitDy=0;" parent="1" source="TC9lJ9d6TZ5hDYxFevUr-32" target="TC9lJ9d6TZ5hDYxFevUr-34" edge="1">
          <mxGeometry width="50" height="50" relative="1" as="geometry">
            <mxPoint x="260" y="-130" as="sourcePoint" />
            <mxPoint x="330" y="-150" as="targetPoint" />
          </mxGeometry>
        </mxCell>
      </root>
    </mxGraphModel>
  </diagram>
</mxfile>
